<svg xmlns="http://www.w3.org/2000/svg" xmlns:xlink="http://www.w3.org/1999/xlink" width="131" height="26" viewBox="0 0 131 26">
    <defs>
        <path id="a" d="M0 .008h130.944v25.907H0z"/>
    </defs>
    <g fill="none" fill-rule="evenodd">
        <path fill="#8B0304" d="M71.367 14.544h3.603l-.038-8.012zM14.298 6.32c-.273 0-.578.014-.917.045-.34.03-.7.066-1.083.106-.163.85-.362 1.881-.598 3.095-.235 1.214-.5 2.49-.794 3.824.301.081.602.137.9.167.299.03.574.046.824.046.732 0 1.346-.167 1.843-.501a4.37 4.37 0 0 0 1.226-1.23c.32-.485.56-.99.72-1.516.158-.526.266-.982.321-1.366.125-.87.016-1.533-.326-1.988-.343-.455-1.049-.683-2.116-.683"/>
        <g transform="translate(0 .077)">
            <mask id="b" fill="#fff">
                <use xlink:href="#a"/>
            </mask>
            <path fill="#8B0304" d="M124.907 19.717l-.436 1.79c-.148.607-.405 1.098-.772 1.472-.367.375-1.02.562-1.957.562h-5.938c-1.167 0-1.962-.223-2.386-.668-.424-.445-.566-1.082-.424-1.912.069-.404.218-1.097.448-2.079.23-.98.504-2.099.823-3.353.319-1.254.65-2.58.992-3.976.343-1.396.672-2.71.988-3.945.315-1.234.584-2.317.807-3.247.221-.93.362-1.568.42-1.912.052-.304.246-.455.582-.455h1.729c1.173 0 1.948.217 2.324.652.375.435.49 1.077.343 1.927a2.357 2.357 0 0 1-.063.273 2.236 2.236 0 0 0-.062.273l-3.477 14.173h5.632a.52.52 0 0 1 .326.106c.092.071.126.178.101.319zm-14.554-9.196c.125 0 .235.03.33.091.093.061.127.173.1.334l-.43 1.79c-.145.608-.4 1.098-.766 1.473-.366.374-1.02.561-1.959.561h-2.726l-1.104 4.522h6.884c.125 0 .233.036.326.106.092.071.126.178.102.319l-.43 1.79c-.145.607-.4 1.098-.766 1.472-.365.375-1.017.562-1.954.562h-7.189c-1.167 0-1.963-.223-2.389-.668-.426-.445-.57-1.082-.431-1.912a40.09 40.09 0 0 1 .44-2.079c.225-.98.495-2.099.808-3.353.314-1.254.639-2.58.976-3.976.337-1.396.66-2.71.971-3.945.31-1.234.575-2.317.794-3.247.217-.93.355-1.568.413-1.912.05-.304.243-.455.579-.455h11.066a.6.6 0 0 1 .33.09c.095.061.128.173.1.334l-.43 1.79c-.145.608-.401 1.099-.768 1.473-.367.374-1.022.561-1.964.561h-4.334l-1.033 4.28h4.454zM94.12 6.242l-3.963 16.843c-.07.304-.21.456-.419.456H88.02c-1.167 0-1.963-.223-2.39-.668-.429-.445-.575-1.082-.44-1.912.05-.303.14-.759.27-1.366.13-.607.293-1.32.49-2.14l.638-2.67c.23-.96.467-1.932.71-2.913a353 353 0 0 0 .714-2.929l.645-2.7h-5.025c-.23 0-.322-.142-.276-.426l.369-1.7c.063-.262.152-.52.267-.773a2.31 2.31 0 0 1 .472-.683c.2-.202.44-.364.723-.485a2.48 2.48 0 0 1 .988-.182h14.053a.6.6 0 0 1 .331.09c.094.061.128.173.102.334l-.424 1.79c-.143.608-.398 1.099-.763 1.473-.366.374-1.02.561-1.962.561h-3.391zm-13.046 16.57c-.046.284-.144.476-.296.577-.152.101-.374.152-.665.152H78.52c-.896 0-1.593-.107-2.09-.319-.497-.212-.854-.52-1.07-.926-.217-.404-.342-.895-.375-1.471a19.319 19.319 0 0 1 .001-1.958h-5.445l-1.695 4.188c-.156.324-.421.486-.796.486h-1.657c-.333 0-.671-.035-1.014-.107a2.664 2.664 0 0 1-.899-.349 1.804 1.804 0 0 1-.605-.622c-.149-.252-.194-.561-.137-.925.07-.445.33-1.173.781-2.185a77.518 77.518 0 0 1 1.652-3.445c.651-1.284 1.364-2.63 2.14-4.036a256.835 256.835 0 0 1 2.246-3.99 151.371 151.371 0 0 1 1.952-3.309c.58-.95 1.016-1.618 1.308-2.003.212-.283.39-.45.535-.5.144-.05.405-.076.782-.076h2.987c.524 0 .944.096 1.258.288.315.192.563.445.743.758.18.314.311.673.393 1.078.081.405.14.82.177 1.244l.766 8.103c.2 2.125.351 3.84.453 5.144.102 1.305.164 2.271.188 2.898.024.628.016 1.063-.024 1.305zm-18.99-3.095l-.405 1.79c-.137.607-.385 1.098-.746 1.472-.36.375-1.01.562-1.947.562H46.111c-.23 0-.327-.111-.293-.334l.343-1.639c.048-.182.114-.41.198-.683.083-.273.211-.5.385-.683a34.26 34.26 0 0 1 1.593-2.033c.612-.728 1.353-1.618 2.225-2.67a207.635 207.635 0 0 0 7.227-9.256h-7.16c-.167 0-.262-.031-.284-.092-.022-.06-.02-.171.004-.334l.354-1.7c.06-.262.137-.52.228-.773.09-.253.23-.48.419-.683.188-.202.437-.364.75-.485.312-.122.709-.182 1.19-.182H65.3c.126 0 .236.03.332.09.095.061.13.173.105.334l-.383 1.64c-.124.526-.318.96-.581 1.304l-1.137 1.442-2.58 3.262a3591.983 3591.983 0 0 1-3.49 4.4 745.86 745.86 0 0 1-3.862 4.826h7.948c.125 0 .235.03.33.091.094.06.13.172.104.334zm-16.706 0l-.397 1.79c-.134.607-.38 1.098-.74 1.472-.358.375-1.006.562-1.944.562H29.422c-.23 0-.328-.111-.295-.334l.336-1.639c.048-.182.112-.41.195-.683.081-.273.209-.5.382-.683.447-.626.975-1.305 1.584-2.033.609-.728 1.346-1.618 2.212-2.67a206.213 206.213 0 0 0 7.185-9.256h-7.16c-.168 0-.262-.031-.285-.092-.022-.06-.021-.171.003-.334l.346-1.7a6.8 6.8 0 0 1 .224-.773c.09-.253.229-.48.416-.683.187-.202.436-.364.748-.485.311-.122.708-.182 1.19-.182h12.01c.125 0 .236.03.332.09.095.061.13.173.106.334l-.375 1.64c-.122.526-.314.96-.576 1.304-.078.102-.455.582-1.13 1.442l-2.565 3.262a3564.118 3564.118 0 0 1-3.47 4.4 744.158 744.158 0 0 1-3.84 4.826h7.948c.126 0 .235.03.33.091.096.06.131.172.106.334zm-17.261-2.504a896.586 896.586 0 0 1-.612 2.777l-.462 2.079c-.124.557-.205.895-.243 1.016-.045.163-.103.279-.176.35-.073.07-.203.106-.39.106h-1.72c-1.167 0-1.968-.223-2.403-.668-.435-.445-.593-1.082-.472-1.912.059-.404.19-1.097.396-2.079.206-.98.452-2.099.739-3.353s.584-2.58.892-3.976c.308-1.396.604-2.71.889-3.945.284-1.234.526-2.317.724-3.247.199-.93.323-1.568.373-1.912.044-.304.234-.455.57-.455h1.729c1.278 0 2.099.263 2.462.789.362.526.467 1.305.315 2.336-.015.102-.078.425-.19.971-.112.547-.26 1.235-.445 2.064a712.32 712.32 0 0 0-1.295 5.918c-.23 1.073-.458 2.12-.681 3.141zm-8.929-2.23c-.812.85-1.797 1.527-2.955 2.033-1.158.506-2.488.759-3.99.759-.898 0-1.647-.092-2.247-.274l-1.231 5.584c-.044.163-.102.279-.175.35-.072.07-.202.106-.39.106H6.763c-1.187 0-1.994-.228-2.42-.683-.425-.455-.575-1.128-.45-2.018.037-.263.111-.683.224-1.26.112-.576.255-1.26.428-2.048l.567-2.58c.204-.93.416-1.881.637-2.853l.7-3.08c.194-.86.355-1.598.485-2.215.128-.617.238-1.133.328-1.548.09-.415.161-.779.216-1.093l.153-.865c.048-.262.093-.546.136-.85.023-.161.091-.277.206-.348a.63.63 0 0 1 .33-.106c.545 0 1.144-.016 1.798-.046.654-.03 1.309-.065 1.964-.106.656-.04 1.29-.076 1.902-.107.612-.03 1.149-.045 1.61-.045 1.341 0 2.472.157 3.39.47.92.314 1.635.77 2.146 1.366.51.597.845 1.32 1.005 2.17.159.85.16 1.82 0 2.913a13.286 13.286 0 0 1-.985 3.445 10.032 10.032 0 0 1-1.944 2.929zM130.261.008H7.433c-2.047 0-3.938 1.515-4.382 3.446l-.018.016L.007 25.135c-.06.431.251.78.695.78h121.956c1.98 0 3.867-1.44 4.433-3.301l.033-.01L130.933.787c.075-.43-.226-.78-.672-.78z" mask="url(#b)"/>
        </g>
    </g>
</svg>
