<svg xmlns="http://www.w3.org/2000/svg" xmlns:xlink="http://www.w3.org/1999/xlink" width="188" height="37" viewBox="0 0 188 37">
    <defs>
        <path id="a" d="M0 .01h187.92v36.65H0z"/>
    </defs>
    <g fill="none" fill-rule="evenodd">
        <path fill="#FFF" d="M102.42 20.573h5.17l-.054-11.334zM19.203 9.003c-.487.043-1.005.094-1.554.15-.234 1.203-.52 2.662-.858 4.38a213.36 213.36 0 0 1-1.14 5.409 8.26 8.26 0 0 0 1.293.236c.428.043.822.064 1.182.064 1.05 0 1.93-.236 2.644-.708a6.228 6.228 0 0 0 1.76-1.739 8.135 8.135 0 0 0 1.033-2.146c.228-.744.382-1.388.461-1.932.18-1.23.023-2.168-.468-2.812-.493-.644-1.505-.966-3.037-.966-.391 0-.83.021-1.316.064z"/>
        <g transform="translate(0 .109)">
            <mask id="b" fill="#fff">
                <use xlink:href="#a"/>
            </mask>
            <path fill="#FFF" d="M179.256 27.89l-.626 2.534c-.212.859-.581 1.553-1.108 2.082-.527.53-1.463.794-2.808.794h-8.522c-1.675 0-2.816-.315-3.425-.944-.608-.63-.811-1.531-.608-2.705.1-.572.313-1.552.644-2.94.33-1.388.723-2.97 1.18-4.744.458-1.775.932-3.65 1.424-5.624.493-1.975.965-3.835 1.418-5.581.453-1.745.839-3.277 1.157-4.594.319-1.316.52-2.217.604-2.704.075-.43.353-.644.834-.644h2.482c1.684 0 2.795.308 3.335.923.539.616.703 1.524.493 2.726a3.293 3.293 0 0 1-.09.386 3.125 3.125 0 0 0-.09.387l-4.99 20.048h8.083c.18 0 .336.05.468.15.132.1.18.251.145.45zM158.37 14.884c.18 0 .337.043.473.129.135.086.183.243.143.472l-.615 2.533c-.208.859-.575 1.553-1.1 2.082-.526.53-1.463.794-2.811.794h-3.912l-1.585 6.397h9.879c.18 0 .335.05.468.15.132.1.181.251.147.45l-.617 2.534c-.208.859-.575 1.553-1.1 2.082-.524.53-1.459.794-2.804.794h-10.316c-1.675 0-2.818-.315-3.429-.944-.611-.63-.818-1.531-.62-2.705.097-.572.307-1.552.632-2.94.324-1.388.71-2.97 1.16-4.744.45-1.775.917-3.65 1.4-5.624.484-1.975.95-3.835 1.395-5.581.445-1.745.825-3.277 1.138-4.594.312-1.316.51-2.217.593-2.704.072-.43.35-.644.83-.644H163.6a.87.87 0 0 1 .474.129c.135.086.184.243.144.472l-.617 2.533c-.209.858-.577 1.553-1.103 2.082-.527.53-1.467.794-2.818.794h-6.22l-1.483 6.053h6.392zM135.074 8.83l-5.687 23.826c-.102.43-.302.644-.6.644h-2.468c-1.675 0-2.818-.315-3.431-.944-.614-.63-.824-1.531-.63-2.705.07-.43.2-1.073.387-1.932.187-.858.42-1.867.702-3.026l.917-3.778c.33-1.36.67-2.733 1.02-4.121.349-1.388.69-2.77 1.023-4.143l.926-3.82h-7.211c-.331 0-.463-.2-.397-.602l.53-2.404c.09-.372.218-.737.383-1.095a3.267 3.267 0 0 1 1.715-1.653c.404-.171.876-.257 1.418-.257h20.168c.18 0 .338.043.475.129.135.086.184.243.145.472l-.608 2.533c-.205.858-.57 1.553-1.094 2.082-.526.53-1.464.794-2.816.794h-4.867zm-18.721 23.44c-.066.4-.208.673-.426.815-.218.144-.536.215-.955.215h-2.287c-1.286 0-2.286-.15-2.999-.45-.713-.301-1.226-.737-1.537-1.31-.31-.572-.49-1.266-.536-2.082a26.937 26.937 0 0 1 0-2.769H99.8l-2.434 5.924c-.224.458-.604.687-1.142.687h-2.377c-.479 0-.964-.05-1.456-.15a3.856 3.856 0 0 1-1.29-.494 2.569 2.569 0 0 1-.869-.88c-.212-.357-.277-.794-.195-1.31.1-.628.473-1.659 1.12-3.09.647-1.431 1.437-3.055 2.372-4.873a184.23 184.23 0 0 1 3.07-5.71 361.898 361.898 0 0 1 3.223-5.645 213.465 213.465 0 0 1 2.802-4.68c.832-1.344 1.457-2.288 1.876-2.832.305-.4.561-.637.768-.709.207-.07.582-.107 1.123-.107h4.286c.752 0 1.355.136 1.807.408.451.272.806.63 1.065 1.073.259.444.447.952.564 1.524.117.573.201 1.16.254 1.76l1.099 11.462c.287 3.006.504 5.431.65 7.277.147 1.846.237 3.213.27 4.1.034.887.023 1.502-.033 1.846zM89.1 27.89l-.581 2.534c-.197.859-.554 1.553-1.071 2.082-.518.53-1.45.794-2.795.794H66.174c-.33 0-.47-.157-.42-.472l.492-2.318c.07-.258.164-.58.284-.966.12-.387.304-.709.553-.966a48.569 48.569 0 0 1 2.286-2.876 694.63 694.63 0 0 0 3.193-3.778 336.818 336.818 0 0 0 4.414-5.388c1.694-2.104 3.68-4.672 5.958-7.706H72.66c-.24 0-.376-.043-.408-.129-.032-.086-.03-.243.006-.472l.507-2.404c.087-.372.197-.737.327-1.095.13-.357.332-.68.601-.966.27-.285.629-.515 1.077-.687.448-.171 1.017-.257 1.71-.257h17.235c.18 0 .338.043.475.129.137.086.187.243.15.472l-.548 2.318c-.18.745-.457 1.36-.835 1.846-.113.144-.657.823-1.63 2.04l-3.704 4.614c-1.495 1.861-3.164 3.936-5.009 6.225-1.843 2.29-3.69 4.565-5.542 6.826h11.406c.18 0 .337.043.474.129.136.086.186.243.15.472zm-23.975 0l-.57 2.534c-.193.859-.546 1.553-1.062 2.082-.515.53-1.445.794-2.79.794h-18.48c-.329 0-.47-.157-.422-.472l.482-2.318c.068-.258.161-.58.28-.966.116-.387.3-.709.548-.966.641-.887 1.4-1.846 2.273-2.876.873-1.03 1.931-2.29 3.174-3.778a334.494 334.494 0 0 0 4.39-5.388c1.684-2.104 3.658-4.672 5.922-7.706H48.595c-.241 0-.377-.043-.41-.129-.032-.086-.03-.243.004-.472l.497-2.404c.086-.372.193-.737.322-1.095a2.77 2.77 0 0 1 .597-.966c.268-.285.625-.515 1.073-.687.447-.171 1.016-.257 1.708-.257h17.235c.18 0 .34.043.477.129.137.086.188.243.152.472l-.538 2.318c-.176.745-.45 1.36-.826 1.846-.112.144-.653.823-1.621 2.04-.97 1.216-2.196 2.754-3.682 4.614-1.486 1.861-3.146 3.936-4.98 6.225-1.833 2.29-3.67 4.565-5.51 6.826h11.406c.18 0 .337.043.474.129.136.086.187.243.152.472zm-24.772-3.54c-.321 1.445-.614 2.754-.878 3.927l-.663 2.94c-.178.789-.295 1.267-.35 1.44-.064.229-.148.393-.252.493-.105.1-.292.15-.561.15h-2.467c-1.675 0-2.824-.315-3.448-.944-.625-.63-.851-1.531-.678-2.705.084-.572.274-1.552.568-2.94.295-1.388.648-2.97 1.06-4.744.412-1.775.839-3.65 1.28-5.624a586.43 586.43 0 0 1 1.276-5.581 291.22 291.22 0 0 0 1.04-4.594c.285-1.316.463-2.217.535-2.704.064-.43.336-.644.818-.644h2.481c1.834 0 3.013.372 3.533 1.116.52.745.671 1.846.453 3.306-.021.143-.112.6-.273 1.373-.16.773-.373 1.746-.638 2.92a1164.859 1164.859 0 0 0-1.858 8.371c-.332 1.517-.658 2.998-.978 4.443zm-12.814-3.156c-1.166 1.202-2.58 2.161-4.241 2.876-1.662.716-3.57 1.073-5.727 1.073-1.288 0-2.363-.128-3.224-.386l-1.767 7.9c-.063.229-.147.393-.25.493-.105.1-.291.15-.56.15H9.705c-1.704 0-2.862-.322-3.472-.966-.612-.644-.827-1.595-.647-2.855.053-.371.16-.966.32-1.781.162-.816.368-1.782.616-2.898.25-1.116.52-2.332.813-3.65.293-1.315.597-2.66.914-4.034l1.005-4.358c.278-1.216.51-2.26.695-3.134.185-.872.342-1.602.471-2.19.129-.585.232-1.1.31-1.545.079-.443.152-.85.221-1.223.068-.372.133-.773.194-1.202.033-.229.131-.393.296-.494.165-.1.323-.15.473-.15.782 0 1.643-.022 2.581-.065.938-.042 1.878-.092 2.82-.15.94-.057 1.85-.107 2.728-.15a48.081 48.081 0 0 1 2.31-.064c1.925 0 3.548.222 4.867.665 1.318.444 2.345 1.088 3.078 1.932.733.844 1.213 1.867 1.442 3.07.229 1.201.23 2.575.002 4.12a18.59 18.59 0 0 1-1.415 4.873 14.178 14.178 0 0 1-2.79 4.143zM10.667.01C7.73.01 5.016 2.155 4.38 4.887L.011 35.555c-.087.61.36 1.104.996 1.104h175.02c2.844 0 5.551-2.037 6.364-4.67l5.513-30.874c.108-.61-.324-1.104-.965-1.104H10.667z" mask="url(#b)"/>
        </g>
    </g>
</svg>
